<svg width="223" height="227" viewBox="0 0 223 227" fill="none" xmlns="http://www.w3.org/2000/svg">
<circle cx="111.666" cy="111.132" r="109.802" fill="#C78554" stroke="black" stroke-width="2.59482"/>
<path d="M134.609 110.774C148.168 143.227 125.069 163.381 111.825 169.401C127.57 169.401 168.189 163.688 178.636 130.123C189.084 96.5583 210.562 113.83 220.472 110.774C215.94 27.2777 147.237 5.08978 122.416 3.05217C125.75 13.518 131.052 35.864 125.717 45.2C119.049 56.8699 117.66 70.2069 134.609 110.774Z" fill="url(#paint0_linear_10_2163)"/>
<path d="M180.749 79.5103C182.646 82.9551 183.746 86.6175 183.404 90.5721C182.82 97.2937 180.109 102.766 173.897 106.055C173.412 106.31 172.89 106.571 172.355 106.658C171.136 106.869 171.31 107.373 171.814 108.219C177.877 118.298 181.701 129.198 183.697 140.77C184.81 147.243 185.444 153.765 185.052 160.319C184.349 172.034 181.794 183.226 175.147 193.169C168.065 203.764 158.221 210.735 146.395 215.087C139.891 217.481 133.119 218.756 126.267 219.664C118.799 220.646 111.313 220.851 103.814 220.304C90.2029 219.309 77.226 216.039 65.2874 209.193C65.0512 209.056 64.7838 208.975 64.5289 208.869H64.5226C64.4729 208.726 64.3796 208.677 64.2366 208.714C49.2886 199.443 39.887 186.211 36.4298 168.981C32.2762 148.275 35.0556 128.415 44.4883 109.518C46.391 105.713 48.7352 102.162 51.3654 98.8234C51.8131 98.2575 51.8193 98.0648 51.1726 97.6233C46.9506 94.7319 44.5816 90.541 43.5618 85.6723C40.9502 73.1928 49.0958 61.1548 61.6499 59.134C68.0234 58.108 73.7004 59.8117 77.9473 65.0535C78.1214 65.2711 78.3141 65.4639 78.5007 65.6753C79.9805 68.0941 80.9816 70.6745 81.0998 73.541C81.1309 74.2312 81.3485 74.3494 81.9579 74.0633C83.5372 73.3296 85.2223 72.9192 86.8949 72.4778C90.9988 71.7689 95.0902 71.514 99.1319 72.826C99.7413 73.0249 99.8719 72.7265 100.052 72.285C100.811 70.4072 101.787 68.635 102.745 66.8567C102.869 66.6329 102.937 66.2722 103.298 66.3468C103.565 66.4028 103.578 66.7012 103.615 66.9313C103.715 67.5469 103.808 68.1687 103.92 68.9024C105.804 67.2422 107.626 65.5944 109.796 64.3011C108.894 66.123 107.999 67.9448 107.06 69.8413C108.844 69.6797 110.517 69.5304 112.19 69.375C112.221 69.4558 112.246 69.5429 112.277 69.6237C111.531 70.0838 110.791 70.5377 109.889 71.0911C111.002 71.2777 111.866 70.9419 112.749 70.8611C119.328 70.2517 125.484 72.0114 131.553 74.2188C135.924 75.8044 140.09 77.8314 144.076 80.2316C144.461 80.4617 144.784 80.872 145.157 80.1072C148.969 72.2788 161.044 66.5955 172.032 71.8C175.694 73.5348 178.48 76.2148 180.755 79.4979L180.749 79.5103ZM138.741 198.025C137.771 198.361 136.801 198.715 135.824 199.039C121.859 203.659 107.613 205.095 93.0321 202.788C91.3657 202.527 89.749 201.949 88.0328 202.029L88.0701 201.874C88.0391 201.874 88.008 201.862 87.9769 201.862C88.008 201.918 88.0328 201.967 88.0639 202.023C88.6236 202.577 89.1894 203.13 89.749 203.683C90.1221 204.144 90.5014 204.598 90.8745 205.058C93.3243 208.092 95.0778 211.487 95.8924 215.299C96.0976 216.269 96.4396 216.505 97.3163 216.561C99.2128 216.691 101.097 216.953 102.987 217.096C111.674 217.773 120.323 217.413 128.941 216.144C129.644 216.039 129.892 215.74 129.961 215.131C131.391 210.679 133.405 206.506 135.831 202.514C136.278 201.868 136.726 201.221 137.174 200.581C137.758 199.803 138.343 199.026 138.921 198.249C138.964 198.168 139.008 198.087 139.045 198.006C138.946 198.013 138.846 198.025 138.741 198.031V198.025ZM169.563 104.569C169.818 105.327 170.272 105.085 170.769 104.836C176.422 101.976 179.437 97.2378 180.028 91.0882C180.637 84.7707 178.119 79.672 172.852 76.1153C164.595 70.5377 153.745 72.7949 147.75 81.1705C147.11 82.0597 146.961 82.5944 148.148 82.9613C149.255 83.7758 150.412 84.5344 151.463 85.4112C152.352 86.1573 153.098 86.7356 153.769 85.2371C153.794 85.1749 153.987 85.1935 154.099 85.1749C154.441 85.6475 153.894 85.7594 153.72 85.9646C153.266 86.5055 153.297 86.8475 153.875 87.3201C157.27 90.0809 160.41 93.109 163.295 96.4046C163.575 96.7279 163.78 96.9517 164.265 96.6533C169.246 93.5754 169.613 86.9905 165.024 83.9624C162.245 82.1281 158.147 82.4203 155.2 84.6401C154.889 84.8764 154.69 85.4796 154.099 85.1749C154.982 83.838 156.288 83.0297 157.705 82.4079C162.997 80.0948 168.693 82.8867 169.725 88.259C170.384 91.6976 168.55 95.4843 165.26 97.3559C164.626 97.7166 164.446 97.9404 164.999 98.5373C165.77 99.3768 166.46 100.297 167.182 101.18C167.977 102.312 168.767 103.437 169.563 104.569ZM71.4246 78.2543C70.3738 73.8706 65.0139 71.856 61.1276 74.3805C57.4341 76.7806 56.2962 82.0224 58.5036 86.3874C58.7275 86.8351 59.1316 87.233 58.9886 87.8051C58.6777 87.3698 58.3233 86.9532 58.0684 86.4869C56.5201 83.7199 55.8858 80.8161 56.8559 77.7009C58.0248 73.9514 61.2831 71.514 64.9952 71.6072C68.527 71.6881 71.5614 74.0633 72.4568 77.4957C72.6682 78.3102 72.7304 79.1683 72.8796 80.101C74.3906 78.5154 76.1876 77.4273 77.8416 76.1588C78.5628 75.8106 79.5266 75.6614 79.2468 74.4799C78.0716 69.5677 75.6715 65.4763 70.8215 63.5176C63.8511 60.7009 57.5336 62.3735 52.3043 67.4474C44.1525 75.3629 44.5442 86.8786 52.8142 96.1745C53.3116 96.7341 53.5292 96.3113 53.7655 95.9258C53.9085 95.7952 54.064 95.6771 54.2008 95.5403C57.1792 92.5059 60.139 89.4466 63.4842 86.7978C63.5588 86.8662 63.6335 86.9346 63.7081 86.9968C63.3101 87.4942 62.9122 87.9916 62.5142 88.4891C56.2278 95.1734 50.8368 102.48 46.8573 110.787C39.1968 126.792 36.38 143.618 38.2392 161.246C39.0849 169.242 41.1368 176.946 44.8676 184.06C52.3976 198.442 64.734 207.066 79.7132 212.358C84.2585 214.024 88.9344 215.199 93.7285 215.902C93.7969 215.933 93.884 216.014 93.9213 215.995C94.0705 215.927 94.0145 215.809 93.9524 215.703C93.4363 214.465 92.9575 213.203 92.2051 212.084C91.7325 211.767 91.8258 211.182 91.5709 210.741C90.0848 208.179 88.238 205.922 85.9996 203.976C81.5599 200.114 76.1938 197.758 71.1634 194.86C69.0991 193.474 66.9974 192.143 64.9828 190.694C63.2604 189.451 61.4696 188.269 60.1576 186.534C60.2074 186.472 60.2633 186.41 60.3131 186.348C61.1401 186.957 61.9484 187.604 62.8003 188.176C74.3719 195.874 87.125 200.108 100.966 200.991C112.072 201.7 122.972 200.394 133.623 197.173C140.196 195.19 146.538 192.653 152.488 189.196C152.806 189.04 153.135 188.91 153.446 188.735C161.791 184.041 169.265 178.202 176.179 171.611C176.484 171.319 176.807 171.045 177.124 170.765C177.062 171.182 176.875 171.437 176.67 171.673C172.162 176.884 167.107 181.491 161.548 185.564C157.295 188.686 152.781 191.384 148.155 193.896C145.997 194.829 143.995 195.948 142.397 197.77C137.789 203.018 134.68 209.13 131.926 215.647C132.802 215.442 133.561 215.261 134.326 215.081C134.755 215.013 135.184 214.95 135.607 214.87C145.263 212.905 154.161 209.199 161.927 203.055C174.587 193.038 180.227 179.433 181.763 163.783C182.31 158.193 182.117 152.603 181.502 147.025C180.861 141.23 179.754 135.522 178.044 129.932C178.001 129.795 177.964 129.652 177.92 129.515C177.858 129.354 177.802 129.192 177.74 129.024C177.696 128.794 177.684 128.552 177.609 128.328C172.548 112.832 164.216 99.5011 151.5 89.1171C148.099 86.3376 144.542 83.7447 140.587 81.7612V81.8234L140.581 81.7612C140.084 81.3197 139.512 81.0151 138.877 80.8285C138.249 80.4927 137.634 80.1383 136.999 79.8274C128.922 75.9474 120.503 73.2985 111.475 72.9317C110.206 72.8819 108.931 72.7824 107.669 72.8384C106.855 72.8757 106.339 71.8808 105.462 72.3223C105.263 72.4218 104.977 72.5399 104.803 72.3037C104.604 72.0363 104.803 71.7813 104.933 71.5388C105.375 70.6994 105.816 69.86 106.258 69.0206C106.438 68.8962 106.457 68.7345 106.357 68.548C106.252 68.635 106.152 68.7221 106.046 68.8091C104.262 70.6372 102.633 72.5835 101.346 75.0707C100.966 73.8457 101.862 73.0063 101.669 71.8808C100.307 74.1815 99.7662 76.6873 98.4231 78.8077C98.4107 77.2967 98.8086 75.8914 99.1755 74.4799C99.4553 73.883 99.1941 73.7276 98.6158 73.7151C96.9867 73.6778 95.3701 73.8146 93.7472 73.9514C85.726 74.6292 78.3639 77.1102 71.835 81.9042C71.4743 82.1716 71.1821 82.5944 70.6411 82.5447C71.7106 81.2513 72.3635 79.8896 71.4059 78.2356L71.4246 78.2543Z" fill="#363128"/>
<path d="M116.922 226.615H119.297V226.727H116.922C116.922 226.69 116.922 226.653 116.922 226.615Z" fill="#F5C99B"/>
<path d="M30.1744 186.248C30.5786 186.478 30.6905 186.876 30.9019 187.51C30.2242 187.162 30.1371 186.752 30.1185 186.298L30.1744 186.248Z" fill="#F5C99B"/>
<path d="M103.342 225.602C103.594 225.37 103.986 225.37 104.517 225.602C104.125 225.602 103.733 225.602 103.342 225.602Z" fill="#F5C99B"/>
<path d="M31.1072 187.927C31.4118 188.07 31.5673 188.313 31.5859 188.648L31.5673 188.661C31.1009 188.63 31.0885 188.294 31.0885 187.946L31.1072 187.927Z" fill="#F5C99B"/>
<path d="M31.5859 188.642C31.7911 188.76 31.9963 188.878 31.9528 189.158C31.9528 189.195 31.8284 189.264 31.7911 189.245C31.5051 189.133 31.5984 188.866 31.5735 188.648L31.5921 188.636L31.5859 188.642Z" fill="#F5C99B"/>
<path d="M88.1949 222.524C88.2573 222.555 88.3134 222.592 88.3757 222.624C88.3134 222.655 88.2573 222.711 88.1949 222.711C88.1326 222.711 88.0765 222.655 88.0142 222.624C88.0765 222.592 88.1326 222.561 88.1949 222.524Z" fill="#F5C99B"/>
<path d="M31.0963 187.948C31.0647 187.91 31.0331 187.872 30.9951 187.827C31.0331 187.859 31.071 187.897 31.109 187.929L31.09 187.948H31.0963Z" fill="#F5C99B"/>
<path d="M200.125 104.259L200.025 104.158C200.025 104.158 200.075 104.158 200.088 104.177C200.106 104.202 200.113 104.234 200.125 104.259Z" fill="#F5C99B"/>
<path d="M64.2303 208.714C64.3737 208.676 64.4672 208.726 64.5171 208.87C64.4236 208.82 64.3239 208.764 64.2303 208.714Z" fill="#F5C99B"/>
<path d="M92.1925 212.09C92.9511 213.209 93.4237 214.472 93.9398 215.709C93.8651 215.777 93.7905 215.846 93.7159 215.914C88.9218 215.211 84.2521 214.036 79.7006 212.37C79.7876 211.785 79.2902 211.773 78.9544 211.624C76.1252 210.337 73.1965 209.273 70.4793 207.725C67.619 206.102 64.8334 204.374 62.2964 202.291C59.5543 200.033 57.0422 197.534 54.7353 194.81C50.7061 190.054 47.5598 184.787 45.197 179.048C43.5865 175.13 42.5357 171.045 41.7211 166.879C40.9128 162.75 40.5272 158.603 40.4153 154.424C40.2661 148.884 40.7324 143.381 41.547 137.891C42.2932 132.873 43.3689 127.93 44.9918 123.148C47.5474 115.63 50.9113 108.492 55.6556 102.032C59.4797 96.821 63.8696 92.1948 68.844 88.1096C72.2763 85.2867 75.976 82.8305 79.9368 80.8408C84.2148 78.6956 88.6607 76.9048 93.2931 75.6239C95.2269 75.0892 97.1234 74.3492 99.1877 74.4984C98.8209 75.9099 98.4229 77.3152 98.4354 78.8262C99.7722 76.7058 100.313 74.2 101.681 71.8993C101.868 73.031 100.979 73.8642 101.358 75.0892C102.645 72.602 104.274 70.6557 106.059 68.8276C106.127 68.896 106.202 68.9707 106.27 69.0391C105.829 69.8785 105.387 70.7179 104.946 71.5573C104.815 71.7998 104.61 72.0548 104.815 72.3221C104.989 72.5522 105.275 72.4403 105.474 72.3408C106.351 71.8993 106.867 72.8942 107.681 72.8569C108.944 72.7947 110.218 72.8942 111.487 72.9502C120.515 73.317 128.928 75.9597 137.012 79.8459C137.652 80.1506 138.268 80.5112 138.89 80.847C139.157 81.7113 139.81 81.8605 140.593 81.7797V81.8419L140.6 81.7797C140.444 82.2772 140.879 82.4015 141.147 82.5756C143.684 84.1923 146.134 85.9271 148.447 87.8485C151.35 90.2548 154.124 92.8104 156.312 95.9008C159.85 100.894 162.083 106.534 164.116 112.254C166.367 118.596 168.064 125.082 169.208 131.729C170.06 136.678 170.552 141.659 170.775 146.664C170.962 150.862 170.545 155.028 169.874 159.175C168.954 164.877 166.97 170.181 164.135 175.174C161.225 180.291 157.313 184.582 152.861 188.4C152.606 188.617 152.426 188.86 152.488 189.22C146.538 192.678 140.189 195.214 133.623 197.198C122.972 200.419 112.071 201.731 100.966 201.016C87.1248 200.133 74.3717 195.898 62.8001 188.201C61.942 187.628 61.1399 186.982 60.3129 186.372C60.2134 186.366 60.0517 186.31 60.0206 186.354C59.9274 186.478 60.0579 186.522 60.1574 186.559C61.4632 188.294 63.2602 189.475 64.9826 190.719C66.9972 192.174 69.0989 193.504 71.1633 194.885C71.1819 196.128 72.1954 196.688 72.9478 197.416C73.7562 198.199 75.093 198.292 75.7521 199.038C76.7408 200.158 78.0652 200.755 79.1347 201.725C81.6095 203.963 84.3827 205.878 86.8139 208.21C88.2876 209.621 89.7488 211.07 91.4712 212.208C91.7821 212.413 92.0122 212.575 92.1987 212.115L92.1925 212.09ZM142.191 168.384C142.191 168.384 142.129 168.402 142.11 168.421C142.098 168.434 142.098 168.465 142.092 168.483C142.129 168.452 142.16 168.421 142.198 168.384C142.222 168.371 142.26 168.365 142.278 168.347C142.291 168.334 142.291 168.303 142.297 168.284C142.266 168.315 142.229 168.353 142.198 168.384H142.191ZM141.482 168.869C141.514 168.838 141.551 168.8 141.582 168.769C141.545 168.8 141.514 168.832 141.476 168.863L141.24 169.099C141.041 169.099 140.861 169.142 140.761 169.335C140.68 169.416 140.6 169.491 140.519 169.571C140.32 169.571 140.146 169.621 140.04 169.814L139.804 170.05C139.605 170.05 139.424 170.094 139.325 170.293C139.244 170.374 139.163 170.448 139.089 170.529C138.678 170.504 138.324 170.585 138.137 171.008C138.119 171.039 138.1 171.076 138.081 171.107C138.1 171.07 138.119 171.039 138.131 171.002C138.541 171.033 138.902 170.952 139.089 170.529C139.169 170.448 139.25 170.374 139.325 170.293C139.524 170.293 139.704 170.249 139.804 170.056C139.884 169.976 139.965 169.901 140.046 169.82C140.245 169.82 140.419 169.777 140.525 169.578C140.606 169.497 140.68 169.416 140.761 169.341C140.96 169.341 141.134 169.298 141.234 169.099C141.315 169.018 141.395 168.943 141.47 168.863L141.482 168.869ZM140.78 177.462C141.999 177.294 142.434 176.299 143 175.435C142.123 175.964 141.377 176.635 140.755 177.437C140.09 177.661 139.592 178.09 139.238 178.687C139.891 178.451 140.631 178.333 140.786 177.468L140.78 177.462ZM138.168 112.577C137.584 111.769 136.713 111.508 135.799 111.415C134.064 111.247 132.466 112.341 131.95 113.976C131.434 115.618 132.112 117.39 133.611 118.298C135.053 119.168 136.912 118.945 138.106 117.757C139.387 116.482 139.542 114.66 138.51 112.975C138.398 112.845 138.286 112.708 138.175 112.577H138.168ZM79.1782 112.975C79.0415 113.056 78.9171 113.143 79.0352 113.33C77.8725 114.244 77.9098 115.5 78.1958 116.725C78.5751 118.341 80.0488 119.405 81.6965 119.411C83.3878 119.423 84.8242 118.329 85.3092 116.675C85.7693 115.096 85.1537 113.467 83.736 112.534C82.2562 111.558 80.6146 111.713 79.1782 112.975ZM68.5331 111.39L68.5144 111.415C68.9932 111.62 69.1984 111.166 69.4782 110.973C70.5477 110.221 71.5861 109.425 72.6369 108.641C77.0641 105.346 81.6033 102.237 86.6087 99.874C86.7642 100.707 87.529 100.552 88.0327 100.645C89.3882 100.888 90.7624 101.055 92.1365 101.136C93.9149 101.242 95.6932 101.248 97.4218 100.645C98.8209 100.154 99.3556 98.618 98.3607 97.7786C97.8509 97.3495 97.285 96.9578 96.6881 96.6593C92.7148 94.6882 88.5488 94.253 84.2335 95.2043C77.1077 96.7713 71.8535 100.745 68.6636 107.348C68.0791 108.554 67.6688 109.829 67.4076 111.153C67.333 111.514 66.8915 111.893 67.3516 112.179C67.8926 112.515 68.0667 111.937 68.3154 111.607C68.4336 111.583 68.645 111.651 68.5393 111.39H68.5331ZM66.3879 129.285C66.8666 130.118 67.134 131.039 68.0045 131.679C70.442 133.476 74.1603 133.271 76.6164 131.287C78.3575 129.882 78.3823 127.059 76.6911 125.679C74.4961 123.882 70.9954 123.726 68.5828 125.287C68.1911 125.542 67.8553 125.915 67.3579 125.977C67.3579 125.343 67.3268 124.709 67.3454 124.074C67.4822 119.604 63.6706 116.936 59.5232 118.298C54.841 119.84 52.043 123.254 51.216 127.967C50.2708 133.377 53.7778 136.1 58.7086 135.018C61.5378 134.396 63.4965 132.537 65.25 130.392C65.5795 129.988 65.679 129.316 66.3879 129.291V129.285ZM81.5162 147.143C81.1804 147.28 81.168 147.529 81.2737 147.827C81.6903 148.977 82.0074 150.184 82.536 151.278C84.9672 156.296 88.8472 159.94 93.6786 162.582C102.328 167.321 111.661 168.39 121.293 167.37C125.981 166.873 130.52 165.654 134.792 163.521C138.97 161.438 142.676 158.852 145.195 154.804C148.198 149.979 148.608 144.88 146.73 139.576C145.512 136.137 143.547 133.122 141.066 130.479C140.295 129.652 139.723 128.464 138.361 128.34C135.986 126.226 133.467 124.311 130.657 122.8C123.83 119.131 116.511 117.825 108.838 118.062C103.559 118.223 98.5535 119.367 93.8776 121.867C84.8117 126.705 78.544 136.411 81.5224 147.143H81.5162ZM149.019 129.988C150.101 130.236 151.071 129.658 152.047 129.123C153.545 128.303 154.777 126.133 154.578 124.702C154.329 122.943 152.818 121.438 150.878 121.021C148.353 120.48 145.431 122.029 144.424 124.392C143.087 127.525 146.084 130.398 149.019 129.988ZM132.423 96.7651C133.865 97.3993 135.333 97.99 136.751 98.674C140.556 100.515 144.225 102.554 146.929 105.937C147.135 106.192 147.346 106.291 147.644 106.185C147.98 106.067 147.98 105.762 147.968 105.489C147.906 104.065 147.041 103.058 146.127 102.125C142.378 98.3133 137.646 96.9143 132.429 96.7713L132.423 96.7651ZM52.528 171.145C53.7156 173.302 55.3385 174.938 57.0298 176.523C57.1479 176.635 57.322 176.716 57.4402 176.56C57.6702 176.262 57.4464 176.044 57.2536 175.845C55.8546 174.403 54.3374 173.066 53.243 171.35C53.1435 171.188 52.9694 171.064 52.528 171.145ZM46.8882 156.284C47.2178 157.278 49.8231 159.828 50.5879 159.983C49.4438 158.839 48.0324 157.428 46.8882 156.284ZM68.1911 179.968C68.1538 179.489 66.307 178.103 65.8034 178.171C65.5422 178.208 65.3432 178.333 65.2562 178.569C65.1443 178.874 65.2686 179.172 65.5236 179.29C66.2697 179.645 67.0407 179.955 67.8056 180.254C68.0107 180.335 68.1911 180.235 68.1911 179.968ZM160.298 171.661C160.273 171.35 160.08 171.182 159.782 171.468C158.98 172.227 158.203 173.004 157.444 173.806C157.208 174.061 157.432 174.247 157.699 174.278C158.221 174.347 160.329 172.27 160.304 171.661H160.298ZM51.3092 174.962C51.7631 176.623 52.7456 177.928 53.9021 179.116C54.07 179.284 54.3001 179.433 54.5302 179.247C54.7478 179.066 54.5737 178.874 54.4369 178.749C53.1933 177.655 52.2917 176.281 51.3155 174.962H51.3092ZM47.4976 165.412C47.3919 165.511 47.2862 165.617 47.1743 165.716C48.3557 166.885 49.5309 168.06 50.7185 169.217C50.8678 169.36 51.1227 169.372 51.2408 169.174C51.359 168.975 51.1973 168.788 51.0419 168.676C49.7299 167.731 48.7039 166.469 47.4976 165.412ZM76.9398 164.815C77.7481 166.208 78.9109 167.252 80.3037 168.054C80.4778 168.154 80.7141 168.172 80.8136 167.955C80.9069 167.737 80.7141 167.594 80.5462 167.488C79.2715 166.705 78.1274 165.747 76.9398 164.808V164.815ZM145.754 173.091C145.835 173.172 145.916 173.259 145.997 173.34C147.197 172.942 147.993 172.003 148.845 171.138C148.975 171.002 149.149 170.815 148.938 170.641C148.851 170.566 148.596 170.554 148.515 170.629C147.582 171.437 146.674 172.264 145.76 173.091H145.754ZM52.3849 161.948C53.1746 163.21 54.0825 164.336 55.5375 164.883C54.8037 163.577 53.4296 162.924 52.3849 161.948ZM42.8279 165.99C43.0642 166.742 43.1512 167.538 43.5492 168.235C43.6487 168.409 43.7917 168.595 44.0155 168.502C44.2456 168.409 44.1896 168.191 44.1337 167.998C43.916 167.246 43.4559 166.568 43.4373 165.747C43.4373 165.561 43.2818 165.349 43.0331 165.474C42.8403 165.567 42.7968 165.778 42.8279 165.984V165.99ZM80.1669 172.438C79.4518 171.847 78.7492 171.25 78.0279 170.672C77.8725 170.548 77.6548 170.479 77.4932 170.666C77.375 170.803 77.4559 170.958 77.5678 171.082C78.2393 171.853 79.0601 172.376 80.1669 172.438ZM165.602 153.995C165.235 154.748 164.974 155.295 164.707 155.836C164.613 156.029 164.576 156.24 164.769 156.352C164.962 156.458 165.136 156.296 165.266 156.147C165.757 155.587 165.95 154.959 165.602 153.989V153.995ZM45.626 158.298C45.7379 158.64 45.6882 159.181 46.2354 159.256C46.6147 159.312 46.6209 158.914 46.5836 158.653C46.5276 158.186 46.453 157.627 45.8996 157.565C45.5389 157.527 45.7006 157.987 45.626 158.298ZM89.8421 167.003C89.5561 166.612 89.2079 166.319 88.5301 166.375C88.9405 166.854 89.3384 167.016 89.8421 167.003ZM87.5352 165.623C87.5104 165.691 87.442 165.772 87.4606 165.816C87.4855 165.866 87.585 165.878 87.6534 165.909C87.6845 165.841 87.7466 165.76 87.728 165.716C87.7031 165.667 87.6036 165.654 87.5352 165.623ZM143.932 174.67C143.932 174.67 143.876 174.652 143.845 174.639C143.845 174.683 143.839 174.726 143.833 174.77C143.864 174.763 143.901 174.77 143.92 174.745C143.932 174.732 143.926 174.695 143.932 174.67Z" fill="#F9F5EA"/>
<path d="M152.482 189.202C152.42 188.841 152.607 188.599 152.855 188.381C157.307 184.563 161.218 180.279 164.128 175.155C166.97 170.162 168.954 164.858 169.868 159.156C170.539 155.003 170.956 150.837 170.769 146.646C170.545 141.64 170.06 136.66 169.202 131.71C168.052 125.069 166.361 118.578 164.11 112.236C162.077 106.515 159.844 100.875 156.306 95.8822C154.117 92.7919 151.344 90.2425 148.44 87.8299C146.127 85.9086 143.677 84.1737 141.141 82.5571C140.867 82.383 140.432 82.2586 140.593 81.7612C144.548 83.7447 148.105 86.3376 151.506 89.117C164.222 99.5011 172.554 112.832 177.615 128.328C177.69 128.552 177.702 128.794 177.746 129.024C177.36 129.347 177.572 129.453 177.926 129.515C177.97 129.652 178.007 129.795 178.051 129.932C177.764 130.1 177.746 130.336 177.808 130.641C178.579 134.427 179.288 138.22 179.686 142.069C180.177 146.783 180.556 151.471 180.407 156.228C180.252 161.264 179.667 166.214 178.685 171.145C177.478 177.22 175.408 182.946 172.299 188.306C170.141 192.025 167.486 195.358 164.595 198.51C163.824 199.349 163.096 200.295 161.685 200.811C163.152 198.361 164.483 196.129 165.192 193.598C163.967 194.972 163.022 196.558 161.647 197.814C163.569 193.859 165.273 189.83 166.771 185.577C166.448 185.645 166.317 185.639 166.224 185.695C166.019 185.807 165.814 185.931 165.627 186.074C159.732 190.626 153.272 194.226 146.569 197.416C146.239 197.571 145.879 197.913 145.512 197.453C146.333 196.216 147.439 195.202 148.154 193.89C152.787 191.378 157.295 188.679 161.548 185.558C167.101 181.485 172.162 176.878 176.67 171.667C176.875 171.431 177.062 171.176 177.124 170.759C176.807 171.039 176.484 171.313 176.179 171.605C169.264 178.196 161.79 184.035 153.446 188.729C153.135 188.903 152.805 189.04 152.488 189.189L152.482 189.202Z" fill="#F5C99B"/>
<path d="M145.512 197.465C145.879 197.919 146.239 197.583 146.569 197.428C153.272 194.232 159.732 190.638 165.627 186.086C165.814 185.943 166.019 185.819 166.224 185.707C166.323 185.657 166.448 185.657 166.771 185.589C165.266 189.842 163.569 193.871 161.648 197.826C163.022 196.576 163.967 194.984 165.192 193.61C164.483 196.141 163.152 198.373 161.685 200.823C163.096 200.307 163.824 199.362 164.595 198.522C167.486 195.37 170.141 192.031 172.299 188.319C175.408 182.959 177.479 177.232 178.685 171.157C179.667 166.226 180.252 161.283 180.407 156.24C180.55 151.483 180.171 146.789 179.686 142.082C179.288 138.227 178.579 134.44 177.808 130.653C177.746 130.342 177.765 130.106 178.051 129.944C179.761 135.528 180.867 141.236 181.508 147.037C182.123 152.615 182.316 158.205 181.769 163.795C180.233 179.446 174.593 193.051 161.934 203.068C154.167 209.211 145.269 212.917 135.613 214.882C135.19 214.969 134.761 215.025 134.332 215.093C134.288 214.44 134.438 213.875 134.811 213.309C137.565 209.174 140.233 204.989 143.056 200.904C143.852 199.754 144.262 198.305 145.518 197.478L145.512 197.465Z" fill="#F9F5EA"/>
<path d="M99.1879 74.4985C97.1235 74.3431 95.227 75.0892 93.2932 75.624C88.6608 76.9049 84.215 78.6957 79.937 80.8409C75.9761 82.8306 72.2702 85.2929 68.8441 88.1097C63.8697 92.2011 59.4798 96.8273 55.6557 102.032C50.9176 108.492 47.5475 115.63 44.9919 123.148C43.369 127.923 42.2933 132.867 41.5471 137.891C40.7326 143.381 40.2662 148.884 40.4155 154.424C40.5274 158.603 40.9129 162.757 41.7212 166.879C42.5358 171.045 43.5866 175.13 45.1971 179.048C47.5537 184.787 50.7 190.054 54.7355 194.81C57.0424 197.534 59.5544 200.033 62.2965 202.291C64.8335 204.374 67.6254 206.102 70.4794 207.725C73.1967 209.273 76.1253 210.337 78.9545 211.624C79.2903 211.773 79.7877 211.785 79.7007 212.37C64.7216 207.078 52.3851 198.454 44.8551 184.072C41.1305 176.958 39.0724 169.248 38.2267 161.258C36.3613 143.636 39.1781 126.81 46.8449 110.799C50.8244 102.486 56.2154 95.1795 62.5017 88.5014C63.0987 88.6133 63.5464 88.4019 63.9754 87.9729C64.7278 87.2267 65.4739 86.4806 66.2823 85.7842C67.5756 84.6711 69.099 83.925 70.4172 82.8679C70.5665 82.812 70.7468 82.7933 70.6846 82.557L70.6535 82.5695C71.1945 82.6192 71.4867 82.1902 71.8474 81.929C78.3763 77.1349 85.7321 74.654 93.7596 73.9762C95.3825 73.8394 96.9991 73.7026 98.6282 73.7399C99.2065 73.7524 99.4677 73.9078 99.1879 74.5047V74.4985Z" fill="#FCFCFC"/>
<path d="M129.954 215.124C129.886 215.74 129.637 216.038 128.935 216.138C120.317 217.406 111.667 217.761 102.981 217.089C101.084 216.94 99.2002 216.685 97.31 216.555C96.4394 216.492 96.0975 216.262 95.886 215.292C95.0715 211.481 93.318 208.086 90.8681 205.051C90.4951 204.591 90.122 204.137 89.7427 203.677C90.0971 203.217 90.4826 203.578 90.8246 203.671C94.6922 204.684 98.6655 205.126 102.633 205.288C107.128 205.474 111.636 205.381 116.138 204.908C120.534 204.448 124.868 203.677 129.19 202.8C131.907 202.253 134.481 201.227 137.167 200.568C136.72 201.215 136.272 201.861 135.824 202.502C135.097 202.446 134.786 203.055 134.431 203.478C133.039 205.169 131.465 206.656 129.811 208.079C126.267 211.139 122.207 213.178 117.717 214.397C115.92 214.882 114.092 215.267 112.283 215.703C112.494 215.976 112.706 216.051 112.917 216.045C115.933 216.032 118.955 216.126 121.964 215.964C124.638 215.821 127.293 215.404 129.954 215.106V215.124Z" fill="#F9F5EA"/>
<path d="M70.4234 82.8616C69.1052 83.9187 67.5818 84.6648 66.2885 85.7779C65.4802 86.4743 64.734 87.2267 63.9816 87.9666C63.5464 88.3956 63.1049 88.607 62.508 88.4951C62.9059 87.9977 63.3039 87.5002 63.7018 87.0028C63.8573 86.8847 64.0998 86.6919 63.9567 86.5551C63.7205 86.325 63.6148 86.667 63.478 86.8038C60.1327 89.4527 57.1729 92.5057 54.1945 95.5463C54.0577 95.6831 53.9085 95.8013 53.7592 95.9318C53.7468 95.6582 53.7468 95.3846 53.5603 95.1421C52.1923 93.3389 51.1788 91.3678 50.3394 89.2475C48.3807 84.2855 48.3807 79.4106 50.9238 74.7285C53.6038 69.7976 57.6704 66.5581 63.3474 65.5818C67.8554 64.8046 71.4308 66.6078 74.347 69.7852C75.9948 71.576 77.313 73.6963 77.8477 76.1711C76.1937 77.4395 74.403 78.5339 72.8858 80.1133C72.7365 79.1744 72.6744 78.3225 72.4629 77.5079C71.5676 74.0756 68.5394 71.7003 65.0014 71.6195C61.2892 71.5325 58.031 73.9637 56.862 77.7131C55.892 80.8283 56.52 83.7321 58.0745 86.4992C58.3357 86.9655 58.6901 87.3759 58.9948 87.8174C59.3368 88.1158 59.2684 88.8122 59.9461 88.7749C59.9772 88.8806 60.0083 88.9801 60.0394 89.0858C60.0705 89.0672 60.1265 89.0299 60.1265 89.0237C60.0705 88.9366 60.0145 88.8495 59.9586 88.7625C60.0394 88.3397 60.0581 87.9417 60.0083 87.494C59.7969 85.6908 59.7534 83.8752 60.4498 82.1403C61.8426 78.6956 66.4564 74.8466 70.9768 78.1608C71.0888 78.2417 71.2753 78.2292 71.4308 78.2603C72.3883 79.9143 71.7417 81.276 70.6659 82.5694L70.697 82.5569C70.4608 82.5321 70.411 82.6689 70.4297 82.8678L70.4234 82.8616Z" fill="#F9F5EA"/>
<path d="M154.105 85.1685C153.993 85.1871 153.8 85.1685 153.775 85.2307C153.104 86.7292 152.358 86.1509 151.469 85.4048C150.418 84.5218 149.261 83.7632 148.154 82.9549C148.932 81.5123 150.275 80.6418 151.525 79.7029C155.467 76.7245 160.025 75.9348 164.788 76.4322C166.839 76.6498 168.985 77.0043 170.782 78.2665C170.894 78.4655 171.08 78.5152 171.292 78.5152H171.285C171.335 79.193 171.926 79.4852 172.324 79.8956C176.042 83.6762 176.664 90.031 173.828 94.4893C172.094 97.2189 169.805 99.3579 167.188 101.186C166.466 100.303 165.776 99.3828 165.005 98.5434C164.458 97.9464 164.638 97.7226 165.266 97.362C168.556 95.4841 170.39 91.7036 169.731 88.265C168.705 82.8927 163.003 80.107 157.711 82.4139C156.294 83.0357 154.988 83.8378 154.105 85.1809V85.1685Z" fill="#F9F5EA"/>
<path d="M77.8415 76.1649C77.3068 73.6901 75.9886 71.576 74.3408 69.779C71.4245 66.6078 67.8492 64.7984 63.3412 65.5756C57.6641 66.5519 53.5976 69.7976 50.9176 74.7223C48.3745 79.3982 48.3745 84.2731 50.3331 89.2413C51.1726 91.3616 52.1861 93.3327 53.5541 95.1359C53.7406 95.3784 53.7406 95.6458 53.753 95.9256C53.5167 96.3111 53.3053 96.7402 52.8017 96.1743C44.538 86.8784 44.14 75.3627 52.2918 67.4472C57.5211 62.3672 63.8386 60.7007 70.809 63.5175C75.659 65.4761 78.0591 69.5676 79.2343 74.4798C79.5141 75.6612 78.5504 75.8104 77.8291 76.1586L77.8415 76.1649Z" fill="#FCFCFC"/>
<path d="M170.775 78.2666C168.978 77.0044 166.833 76.65 164.781 76.4323C160.025 75.9349 155.461 76.7246 151.518 79.703C150.269 80.6481 148.925 81.5187 148.148 82.955C146.967 82.5881 147.116 82.0534 147.75 81.1642C153.751 72.7948 164.595 70.5377 172.852 76.109C178.119 79.6657 180.637 84.7644 180.028 91.0819C179.437 97.2315 176.421 101.976 170.769 104.83C170.272 105.085 169.818 105.327 169.563 104.563C169.606 104.183 169.793 103.872 170.11 103.686C171.08 103.126 171.839 102.318 172.678 101.597C177.23 97.6605 179.263 92.8354 177.907 86.835C177.043 83.0172 174.68 80.331 171.279 78.4967L171.285 78.5029C171.173 78.2977 170.981 78.2666 170.775 78.2542V78.2666Z" fill="#FCFCFC"/>
<path d="M154.099 85.1748C154.696 85.4795 154.888 84.8763 155.199 84.64C158.147 82.4202 162.244 82.128 165.024 83.9623C169.613 86.9904 169.246 93.5753 164.265 96.6532C163.78 96.9517 163.581 96.7278 163.295 96.4045C160.41 93.1089 157.27 90.0808 153.875 87.32C153.297 86.8536 153.266 86.5117 153.719 85.9645C153.894 85.7593 154.435 85.6474 154.099 85.1748Z" fill="#F5C99B"/>
<path d="M171.279 78.5029C174.681 80.3372 177.043 83.0234 177.908 86.8413C179.263 92.8416 177.236 97.6668 172.678 101.603C171.839 102.324 171.087 103.139 170.11 103.692C169.787 103.879 169.607 104.189 169.563 104.569C168.767 103.437 167.978 102.312 167.182 101.18C169.799 99.3518 172.081 97.2128 173.822 94.4831C176.664 90.0249 176.042 83.6701 172.318 79.8895C171.914 79.4792 171.323 79.1869 171.279 78.5029Z" fill="#F5C99B"/>
<path d="M137.167 200.575C134.487 201.234 131.907 202.253 129.19 202.807C124.868 203.684 120.534 204.455 116.138 204.915C111.636 205.387 107.128 205.481 102.633 205.294C98.6656 205.132 94.6985 204.691 90.8247 203.677C90.4827 203.59 90.0972 203.223 89.7428 203.684C89.1832 203.13 88.6173 202.577 88.0577 202.023L88.0328 202.036C89.749 201.949 91.3719 202.527 93.0383 202.788C107.619 205.095 121.859 203.659 135.83 199.039C136.807 198.715 137.777 198.367 138.747 198.025C138.803 198.1 138.865 198.168 138.921 198.243C138.336 199.02 137.752 199.797 137.174 200.575H137.167Z" fill="#F5C99B"/>
<path d="M129.954 215.124C127.293 215.423 124.638 215.84 121.964 215.983C118.955 216.144 115.933 216.051 112.917 216.063C112.706 216.063 112.494 215.989 112.283 215.721C114.099 215.292 115.92 214.907 117.717 214.416C122.207 213.197 126.267 211.157 129.811 208.098C131.465 206.668 133.039 205.182 134.431 203.497C134.786 203.068 135.097 202.458 135.824 202.521C133.399 206.506 131.385 210.685 129.954 215.137V215.124Z" fill="#F5C99B"/>
<path d="M71.4245 78.2542C71.2691 78.2231 71.0888 78.2355 70.9706 78.1547C66.4501 74.8405 61.8364 78.6894 60.4436 82.1342C59.7409 83.869 59.7907 85.6846 60.0021 87.4879C60.0518 87.9356 60.0332 88.3335 59.9523 88.7563L59.9399 88.7688C59.2621 88.8061 59.3305 88.1034 58.9886 87.805C59.1253 87.2267 58.7274 86.835 58.5035 86.3873C56.2962 82.0285 57.4341 76.7867 61.1275 74.3804C65.0076 71.8558 70.3675 73.8705 71.4245 78.2542Z" fill="#F5C99B"/>
<path d="M145.512 197.465C144.256 198.286 143.845 199.741 143.05 200.891C140.227 204.977 137.559 209.168 134.804 213.296C134.431 213.862 134.276 214.428 134.326 215.081C133.567 215.261 132.802 215.441 131.926 215.647C134.674 209.124 137.789 203.018 142.397 197.77C143.988 195.954 145.991 194.829 148.154 193.896C147.446 195.208 146.333 196.228 145.512 197.459V197.465Z" fill="#FCFCFC"/>
<path d="M92.1925 212.09C92.006 212.55 91.7759 212.389 91.465 212.183C89.7427 211.046 88.2752 209.597 86.8078 208.185C84.3765 205.854 81.6033 203.938 79.1286 201.7C78.0528 200.73 76.7284 200.133 75.746 199.014C75.0931 198.268 73.75 198.174 72.9417 197.391C72.1893 196.663 71.182 196.11 71.1571 194.86C76.1875 197.758 81.5536 200.114 85.9932 203.976C88.2255 205.922 90.0722 208.173 91.5645 210.741C91.8195 211.176 91.7262 211.767 92.1988 212.084L92.1925 212.09Z" fill="#FCFCFC"/>
<path d="M140.587 81.7735C139.804 81.8544 139.151 81.7052 138.883 80.8409C139.518 81.0274 140.09 81.3321 140.587 81.7735Z" fill="#F5C99B"/>
<path d="M177.926 129.521C177.578 129.465 177.36 129.36 177.746 129.03C177.808 129.192 177.864 129.353 177.926 129.521Z" fill="#F9F5EA"/>
<path d="M106.052 68.8278C106.158 68.7407 106.258 68.6537 106.363 68.5666C106.469 68.7532 106.444 68.9086 106.264 69.0392C106.196 68.9708 106.121 68.8962 106.052 68.8278Z" fill="#F9F5EA"/>
<path d="M138.74 198.025C138.84 198.019 138.94 198.006 139.046 198C139.002 198.081 138.959 198.162 138.921 198.243C138.865 198.168 138.803 198.1 138.747 198.025H138.74Z" fill="#F5C99B"/>
<path d="M88.0579 202.018C88.0267 201.961 88.0018 201.911 87.9706 201.855C88.0018 201.855 88.033 201.868 88.0642 201.868C88.0517 201.918 88.0392 201.974 88.0267 202.03L88.0517 202.018H88.0579Z" fill="#F5C99B"/>
<path d="M93.9404 215.709C94.0027 215.815 94.0588 215.933 93.9092 216.002C93.8656 216.021 93.7783 215.946 93.7097 215.908C93.7845 215.84 93.8593 215.771 93.9341 215.709H93.9404Z" fill="#F9F5EA"/>
<path d="M81.5163 147.143C78.5379 136.411 84.8119 126.705 93.8715 121.867C98.5474 119.374 103.553 118.23 108.832 118.062C116.511 117.825 123.83 119.131 130.651 122.8C133.468 124.311 135.98 126.232 138.355 128.34C140.649 130.877 142.813 133.495 144.181 136.685C146.898 142.99 146.252 148.841 141.818 154.151C138.709 157.869 134.724 160.419 130.172 161.917C119.378 165.461 108.453 165.542 97.6147 162.247C89.8733 159.89 84.2274 155.003 81.5101 147.143H81.5163ZM106.419 161.998C106.736 162.222 107.11 162.153 107.458 162.178C111.823 162.52 116.194 162.508 120.534 161.93C126.653 161.121 132.336 159.206 137.161 155.177C143.336 150.022 144.803 143.17 141.246 135.963C139.437 132.301 136.813 129.316 133.611 126.81C128.282 122.638 122.238 120.294 115.504 119.709C112.14 119.169 108.77 119.262 105.424 119.765C99.0075 120.735 93.3305 123.285 88.7976 128.017C79.7566 137.443 81.7215 151.521 92.9823 158.056C97.1235 160.456 101.638 161.693 106.413 161.986L106.419 161.998Z" fill="#363128"/>
<path d="M81.5164 147.143C84.2336 155.009 89.8796 159.89 97.621 162.247C108.459 165.542 119.384 165.461 130.178 161.917C134.73 160.419 138.716 157.875 141.825 154.151C146.258 148.841 146.905 142.996 144.187 136.685C142.813 133.495 140.649 130.877 138.361 128.34C139.723 128.458 140.295 129.652 141.066 130.479C143.547 133.128 145.512 136.137 146.731 139.576C148.608 144.88 148.198 149.972 145.195 154.804C142.676 158.852 138.964 161.438 134.792 163.521C130.52 165.648 125.981 166.873 121.293 167.37C111.661 168.39 102.328 167.321 93.6788 162.582C88.8474 159.934 84.9674 156.296 82.5361 151.278C82.0076 150.178 81.6905 148.978 81.2739 147.827C81.1682 147.529 81.1806 147.28 81.5164 147.143Z" fill="#F5C99B"/>
<path d="M66.388 129.285C65.6792 129.31 65.5859 129.982 65.2501 130.386C63.4904 132.531 61.538 134.39 58.7088 135.012C53.7779 136.094 50.2648 133.37 51.2161 127.961C52.0431 123.247 54.8412 119.828 59.5234 118.292C63.677 116.924 67.4824 119.591 67.3456 124.068C67.3269 124.702 67.3518 125.337 67.358 125.971C66.8544 127.022 66.2077 128.035 66.388 129.285ZM65.1879 127.115C65.2066 125.281 64.9268 125.026 63.5775 125.349C62.7754 125.536 62.3525 125.505 62.794 124.541C62.8811 124.342 63.1111 124.118 62.8562 123.907C62.6386 123.732 62.4085 123.888 62.1971 123.994C61.4945 124.348 61.0654 124.957 60.655 125.592C59.8405 126.86 59.9586 127.594 61.1463 128.458C61.3763 128.626 61.6748 128.738 61.4323 129.08C61.0716 129.584 60.8913 130.174 61.4323 130.547C62.0354 130.964 62.7443 130.74 63.3039 130.299C64.4791 129.372 65.1258 128.153 65.1817 127.109L65.1879 127.115Z" fill="#FCFCFC"/>
<path d="M68.3156 111.607C68.0669 111.937 67.8928 112.515 67.3518 112.179C66.8917 111.893 67.3332 111.514 67.4078 111.153C67.6752 109.829 68.0793 108.554 68.6638 107.348C71.8537 100.745 77.1141 96.7713 84.2337 95.2043C88.549 94.253 92.715 94.6882 96.6883 96.6593C97.2852 96.9578 97.8511 97.3495 98.3609 97.7786C99.3558 98.618 98.8211 100.154 97.422 100.645C95.6996 101.248 93.9151 101.242 92.1367 101.136C90.7626 101.055 89.3884 100.888 88.0329 100.645C87.5292 100.552 86.7644 100.707 86.6089 99.874C87.4484 99.4574 88.294 99.0346 89.1272 98.618C81.0874 96.7339 72.3262 102.43 68.5084 111.415L68.527 111.39C68.4524 111.464 68.3778 111.533 68.3032 111.607H68.3156Z" fill="#FCFCFC"/>
<path d="M66.3879 129.285C66.2076 128.035 66.8543 127.022 67.3579 125.971C67.8616 125.909 68.1912 125.536 68.5829 125.281C70.9955 123.72 74.4962 123.876 76.6911 125.673C78.3824 127.053 78.3576 129.882 76.6165 131.281C74.1604 133.265 70.4421 133.47 68.0046 131.673C67.1341 131.032 66.8667 130.112 66.3879 129.279V129.285Z" fill="#F5C99B"/>
<path d="M149.019 129.988C146.084 130.398 143.087 127.526 144.424 124.392C145.431 122.035 148.353 120.481 150.878 121.022C152.818 121.438 154.329 122.943 154.578 124.703C154.777 126.133 153.552 128.297 152.047 129.124C151.071 129.658 150.107 130.237 149.019 129.988Z" fill="#F5C99B"/>
<path d="M68.5146 111.415C72.3325 102.43 81.0874 96.734 89.1335 98.6181C88.3003 99.0347 87.4546 99.4513 86.6152 99.8741C81.6035 102.237 77.0644 105.346 72.6434 108.641C71.5926 109.425 70.5542 110.221 69.4847 110.973C69.2048 111.166 68.9997 111.62 68.5209 111.415H68.5146Z" fill="#363128"/>
<path d="M79.1783 112.969C80.6209 111.707 82.2624 111.552 83.7361 112.528C85.1538 113.467 85.7694 115.09 85.3093 116.669C84.8243 118.323 83.3879 119.417 81.6966 119.405C80.0426 119.392 78.569 118.335 78.1959 116.719C77.9099 115.494 77.8788 114.238 79.0353 113.324L79.0104 113.305C78.9793 113.498 78.9793 113.697 78.9172 113.877C78.6498 114.642 78.9483 115.226 79.5825 115.581C80.2043 115.923 80.8945 115.91 81.4292 115.351C81.9391 114.81 82.0262 114.169 81.6531 113.504C81.2676 112.808 80.652 112.677 79.9307 112.864C79.7069 112.92 79.4892 113.007 79.2654 113.081C79.2343 113.044 79.2032 113.007 79.1783 112.969Z" fill="#363128"/>
<path d="M138.504 112.982C139.536 114.667 139.387 116.489 138.1 117.763C136.906 118.951 135.047 119.175 133.604 118.304C132.106 117.403 131.428 115.631 131.944 113.983C132.46 112.347 134.058 111.253 135.793 111.421C136.707 111.508 137.578 111.775 138.162 112.584C138.1 112.646 138.038 112.714 137.976 112.777C137.77 112.658 137.571 112.515 137.354 112.435C136.489 112.117 135.706 112.236 135.128 112.994C134.618 113.666 134.686 114.412 135.09 115.102C135.575 115.917 136.34 116.159 137.229 115.941C138.355 115.668 138.709 114.717 138.305 113.143C138.367 113.087 138.429 113.038 138.498 112.982H138.504Z" fill="#363128"/>
<path d="M132.423 96.7651C137.64 96.9081 142.372 98.3134 146.121 102.119C147.041 103.051 147.906 104.065 147.962 105.483C147.974 105.756 147.974 106.061 147.638 106.179C147.346 106.285 147.129 106.185 146.923 105.93C144.218 102.548 140.55 100.508 136.744 98.6678C135.327 97.9838 133.859 97.3931 132.417 96.7589L132.423 96.7651Z" fill="#363128"/>
<path d="M52.5281 171.145C52.9758 171.064 53.1437 171.194 53.2431 171.35C54.3375 173.066 55.8547 174.403 57.2537 175.845C57.4465 176.044 57.6704 176.262 57.4403 176.56C57.3221 176.716 57.148 176.635 57.0299 176.523C55.3386 174.938 53.7157 173.302 52.5281 171.145Z" fill="#F5C99B"/>
<path d="M46.8884 156.284C48.0325 157.428 49.444 158.839 50.5881 159.983C49.8233 159.828 47.218 157.279 46.8884 156.284Z" fill="#F5C99B"/>
<path d="M68.1913 179.968C68.1913 180.242 68.0109 180.335 67.8058 180.254C67.0347 179.956 66.2637 179.645 65.5238 179.29C65.2688 179.172 65.1445 178.867 65.2564 178.569C65.3434 178.333 65.5486 178.208 65.8036 178.171C66.3072 178.103 68.154 179.483 68.1913 179.968Z" fill="#F5C99B"/>
<path d="M160.298 171.661C160.323 172.27 158.221 174.347 157.693 174.278C157.425 174.241 157.202 174.055 157.438 173.806C158.196 173.004 158.974 172.226 159.776 171.468C160.074 171.182 160.267 171.35 160.292 171.661H160.298Z" fill="#F5C99B"/>
<path d="M51.3093 174.962C52.2855 176.281 53.1872 177.655 54.4308 178.749C54.5675 178.867 54.7416 179.066 54.524 179.247C54.294 179.433 54.0639 179.29 53.896 179.116C52.7395 177.928 51.757 176.623 51.3031 174.962H51.3093Z" fill="#F5C99B"/>
<path d="M47.4978 165.412C48.7041 166.475 49.73 167.737 51.042 168.676C51.1975 168.788 51.3591 168.981 51.241 169.174C51.1229 169.366 50.8679 169.36 50.7187 169.217C49.5311 168.061 48.3496 166.885 47.1744 165.716C47.2801 165.617 47.3859 165.511 47.4978 165.412Z" fill="#F5C99B"/>
<path d="M76.9398 164.815C78.1275 165.754 79.2716 166.711 80.5463 167.495C80.7141 167.6 80.9069 167.743 80.8136 167.961C80.7204 168.179 80.4841 168.16 80.3038 168.06C78.9109 167.258 77.7482 166.214 76.9398 164.821V164.815Z" fill="#F5C99B"/>
<path d="M145.754 173.091C146.668 172.264 147.582 171.437 148.509 170.629C148.59 170.56 148.845 170.566 148.932 170.641C149.143 170.815 148.975 171.002 148.838 171.138C147.987 172.003 147.191 172.942 145.991 173.34C145.91 173.259 145.829 173.172 145.748 173.091H145.754Z" fill="#F5C99B"/>
<path d="M52.3851 161.948C53.4298 162.924 54.8039 163.577 55.5377 164.883C54.0889 164.336 53.1748 163.211 52.3851 161.948Z" fill="#F5C99B"/>
<path d="M42.828 165.99C42.7969 165.779 42.8404 165.573 43.0332 165.48C43.2819 165.356 43.4311 165.567 43.4373 165.754C43.456 166.575 43.9161 167.252 44.1338 168.005C44.1897 168.197 44.2457 168.421 44.0156 168.508C43.7918 168.595 43.655 168.409 43.5493 168.241C43.1451 167.545 43.0643 166.742 42.828 165.996V165.99Z" fill="#F5C99B"/>
<path d="M80.1669 172.438C79.0601 172.37 78.2394 171.853 77.5678 171.082C77.4621 170.958 77.3751 170.803 77.4932 170.666C77.6549 170.479 77.8725 170.548 78.0279 170.672C78.7492 171.25 79.4581 171.847 80.1669 172.438Z" fill="#F5C99B"/>
<path d="M165.602 153.995C165.957 154.965 165.758 155.587 165.266 156.153C165.136 156.302 164.962 156.464 164.769 156.358C164.576 156.253 164.613 156.035 164.707 155.842C164.974 155.301 165.235 154.754 165.602 154.002V153.995Z" fill="#F5C99B"/>
<path d="M45.6262 158.298C45.7008 157.987 45.5392 157.521 45.8998 157.565C46.4594 157.627 46.5278 158.193 46.5838 158.653C46.6149 158.92 46.6087 159.312 46.2356 159.256C45.6884 159.175 45.7381 158.64 45.6262 158.298Z" fill="#F5C99B"/>
<path d="M140.749 177.431C141.377 176.629 142.117 175.957 142.994 175.429C142.428 176.293 141.992 177.288 140.774 177.456L140.749 177.431Z" fill="#F5C99B"/>
<path d="M140.78 177.462C140.625 178.326 139.885 178.445 139.232 178.681C139.592 178.084 140.084 177.655 140.749 177.431L140.774 177.456L140.78 177.462Z" fill="#F5C99B"/>
<path d="M89.8421 167.003C89.3385 167.016 88.9405 166.854 88.5302 166.375C89.2079 166.326 89.5561 166.612 89.8421 167.003Z" fill="#F5C99B"/>
<path d="M138.143 171.008C138.324 170.579 138.684 170.504 139.095 170.529L139.101 170.535C138.914 170.958 138.554 171.039 138.143 171.008Z" fill="#F5C99B"/>
<path d="M87.5355 165.623C87.6041 165.654 87.7038 165.667 87.7288 165.717C87.7475 165.76 87.6851 165.848 87.654 165.91C87.5854 165.879 87.4856 165.866 87.4607 165.816C87.442 165.773 87.5043 165.685 87.5355 165.617V165.623Z" fill="#F5C99B"/>
<path d="M140.046 169.814C140.146 169.621 140.326 169.578 140.525 169.571L140.537 169.584C140.438 169.777 140.258 169.82 140.059 169.82L140.046 169.808V169.814Z" fill="#F5C99B"/>
<path d="M139.331 170.293C139.431 170.1 139.611 170.057 139.81 170.05L139.816 170.057C139.717 170.249 139.536 170.293 139.337 170.293H139.331Z" fill="#F5C99B"/>
<path d="M140.761 169.335C140.861 169.142 141.041 169.099 141.24 169.099C141.141 169.298 140.967 169.341 140.768 169.341L140.761 169.335Z" fill="#F5C99B"/>
<path d="M138.168 112.577C138.28 112.708 138.392 112.845 138.504 112.975C138.442 113.025 138.38 113.081 138.311 113.137C138.199 113.013 138.087 112.895 137.975 112.77C138.038 112.708 138.1 112.64 138.162 112.577H138.168Z" fill="#363128"/>
<path d="M143.934 174.671C143.934 174.671 143.934 174.734 143.921 174.746C143.896 174.765 143.865 174.765 143.833 174.772C143.833 174.728 143.839 174.683 143.846 174.639C143.877 174.652 143.902 174.658 143.934 174.671Z" fill="#F5C99B"/>
<path d="M140.519 169.572C140.6 169.491 140.681 169.416 140.762 169.335L140.768 169.341C140.687 169.423 140.612 169.504 140.531 169.578L140.519 169.566V169.572Z" fill="#F5C99B"/>
<path d="M141.476 168.864C141.514 168.832 141.545 168.801 141.583 168.769C141.552 168.801 141.514 168.838 141.483 168.87H141.476V168.864Z" fill="#F5C99B"/>
<path d="M68.3156 111.608C68.3904 111.533 68.4652 111.465 68.54 111.39C68.646 111.645 68.4402 111.583 68.3156 111.608Z" fill="#363128"/>
<path d="M142.199 168.39C142.161 168.421 142.13 168.453 142.092 168.49C142.092 168.472 142.092 168.44 142.111 168.428C142.136 168.409 142.167 168.403 142.192 168.39H142.199Z" fill="#F5C99B"/>
<path d="M141.483 168.869C141.402 168.95 141.321 169.025 141.246 169.106C141.327 169.025 141.402 168.944 141.483 168.869Z" fill="#F5C99B"/>
<path d="M138.144 171.008C138.125 171.046 138.106 171.077 138.094 171.114C138.113 171.083 138.131 171.046 138.15 171.014L138.144 171.008Z" fill="#F5C99B"/>
<path d="M79.0354 113.331C78.9169 113.144 79.0354 113.056 79.1788 112.975C79.2037 113.013 79.2349 113.05 79.2661 113.088C79.2536 113.243 79.1725 113.324 79.0105 113.312L79.0354 113.331Z" fill="#363128"/>
<path d="M139.338 170.299C139.257 170.38 139.176 170.455 139.101 170.536C139.101 170.536 139.095 170.536 139.095 170.53C139.176 170.449 139.251 170.374 139.332 170.293H139.338V170.299Z" fill="#F5C99B"/>
<path d="M140.053 169.82C139.972 169.901 139.891 169.976 139.81 170.057L139.804 170.051C139.885 169.97 139.96 169.889 140.041 169.814L140.053 169.826V169.82Z" fill="#F5C99B"/>
<path d="M142.192 168.385C142.223 168.353 142.261 168.316 142.292 168.284C142.292 168.303 142.292 168.335 142.273 168.347C142.254 168.366 142.217 168.372 142.192 168.391V168.385Z" fill="#F5C99B"/>
<path d="M60.1456 186.541C60.0458 186.504 59.9149 186.46 60.0084 186.335C60.0396 186.292 60.2017 186.348 60.3014 186.354C60.2515 186.416 60.1954 186.479 60.1456 186.541Z" fill="#363128"/>
<path d="M70.4235 82.8625C70.4048 82.6693 70.4485 82.5259 70.6916 82.5508C70.7602 82.7877 70.5731 82.8064 70.4235 82.8625Z" fill="#363128"/>
<path d="M63.4718 86.804C63.6086 86.6672 63.7143 86.3252 63.9506 86.5553C64.0936 86.6983 63.8511 86.8849 63.6956 87.003C63.621 86.9346 63.5464 86.8662 63.4718 86.804Z" fill="#363128"/>
<path d="M59.9524 88.7563C60.0085 88.8436 60.0709 88.9247 60.1207 89.0182C60.1207 89.0182 60.0646 89.0556 60.0335 89.0805C60.0023 88.9745 59.9711 88.8748 59.9399 88.7688L59.9524 88.7563Z" fill="#F5C99B"/>
<path d="M170.776 78.2666C170.981 78.2728 171.173 78.3039 171.285 78.5153C171.074 78.5153 170.887 78.4656 170.776 78.2666Z" fill="#F5C99B"/>
<path d="M106.419 161.998C101.644 161.7 97.1235 160.468 92.9885 158.068C81.7215 151.533 79.7629 137.456 88.8038 128.029C93.3429 123.297 99.02 120.748 105.431 119.778C108.776 119.274 112.146 119.181 115.51 119.722C115.125 120.076 115.224 120.226 115.709 120.35C116.965 120.673 118.246 120.885 119.471 121.357C119.981 121.556 120.317 121.755 120.254 122.346C118.159 121.65 116.026 121.133 113.819 120.997C110.635 120.655 107.52 120.997 104.473 121.992C102.123 122.756 99.9153 123.789 98.1308 125.561C96.9742 126.711 96.4271 128.017 97.223 129.615C97.3473 130.15 97.4779 130.684 97.6023 131.219C97.3038 131.779 97.6333 132.276 97.8137 132.755C98.8148 135.373 100.581 137.4 102.763 139.103C105.536 141.267 108.571 142.872 112.103 143.381C110.648 148.275 106.817 150.619 102.023 149.575C101.377 149.432 101.091 149.295 101.339 148.493C101.607 147.641 101.656 146.677 100.997 145.887C100.823 145.682 100.593 145.458 100.288 145.552C99.9775 145.645 100.102 145.949 100.089 146.161C100.046 147.075 99.6542 147.827 99.0884 148.524C98.1557 149.674 96.8374 149.985 95.4073 150.109C96.2467 151.229 97.4717 151.452 99.0573 150.725C99.6418 150.457 100.065 150.47 100.68 150.7C105.754 152.596 111.804 151.384 114.322 145.265C114.577 144.644 114.801 144.009 115.044 143.381C120.373 142.928 124.912 140.813 128.4 136.728C130.738 133.992 131.13 130.89 128.81 127.948C128.717 127.824 128.611 127.687 128.761 127.532C128.798 127.519 128.835 127.488 128.866 127.494C129.463 127.687 129.755 128.259 130.209 128.626C133.971 131.679 136.813 135.453 138.66 139.924C140.823 145.166 139.953 150.346 135.799 154.437C132.721 157.459 128.897 159.013 124.825 160.052C119.266 161.47 113.589 161.749 107.881 161.749C107.396 161.749 106.836 161.532 106.426 162.023L106.419 161.998ZM94.3192 129.727C94.2197 128.726 94.543 127.886 93.6974 127.501C92.9326 127.152 92.2672 127.519 91.6143 127.967C90.0598 129.018 89.0028 130.492 88.0763 132.058C86.5591 134.639 85.4337 137.362 85.4647 140.428C85.471 141.298 85.7757 142.132 86.5653 142.53C87.3364 142.915 88.1012 142.561 88.7541 142.038C88.9406 141.889 89.1209 141.734 89.2764 141.553C92.3232 138.071 93.7844 133.93 94.3192 129.721V129.727Z" fill="#F9F5EA"/>
<path d="M106.419 161.998C106.83 161.513 107.383 161.724 107.874 161.724C113.582 161.724 119.259 161.445 124.818 160.027C128.891 158.989 132.715 157.434 135.793 154.412C139.953 150.321 140.817 145.141 138.653 139.899C136.813 135.429 133.965 131.66 130.203 128.601C129.749 128.234 129.457 127.662 128.86 127.47C128.835 127.463 128.792 127.494 128.754 127.507C128.605 127.662 128.705 127.799 128.804 127.923C131.123 130.865 130.732 133.967 128.394 136.703C124.905 140.788 120.366 142.903 115.037 143.357C115.156 142.573 115.305 141.796 115.373 141.012C115.423 140.471 115.684 140.335 116.182 140.21C121.461 138.848 124.793 135.491 126.391 130.293C126.976 128.396 126.572 126.897 125.216 125.53C123.792 124.093 122.033 123.204 120.248 122.333C120.317 121.743 119.981 121.544 119.465 121.345C118.24 120.872 116.959 120.661 115.703 120.338C115.218 120.213 115.118 120.064 115.504 119.71C122.238 120.294 128.282 122.638 133.611 126.81C136.813 129.316 139.437 132.301 141.246 135.963C144.803 143.164 143.335 150.022 137.161 155.177C132.336 159.206 126.646 161.121 120.534 161.93C116.194 162.502 111.823 162.514 107.458 162.178C107.11 162.153 106.736 162.222 106.419 161.998ZM127.585 126.574C127.616 126.587 127.654 126.599 127.685 126.611C127.697 126.58 127.703 126.555 127.716 126.524C127.685 126.512 127.648 126.493 127.616 126.493C127.604 126.493 127.598 126.549 127.585 126.574Z" fill="#F5C99B"/>
<path d="M65.188 127.115C65.132 128.16 64.4853 129.378 63.3101 130.305C62.7505 130.746 62.0417 130.97 61.4385 130.554C60.8976 130.18 61.0779 129.59 61.4385 129.086C61.6872 128.738 61.3826 128.626 61.1525 128.464C59.9649 127.6 59.8405 126.86 60.6613 125.598C61.0717 124.964 61.5007 124.354 62.2033 124C62.4147 123.894 62.6448 123.739 62.8624 123.913C63.1174 124.118 62.8935 124.348 62.8003 124.547C62.3588 125.505 62.7816 125.542 63.5837 125.355C64.933 125.038 65.2128 125.287 65.1942 127.121L65.188 127.115Z" fill="#F9F5EA"/>
<path d="M79.0105 113.305C79.1722 113.324 79.253 113.236 79.2655 113.081C79.4893 113.006 79.7069 112.919 79.9308 112.863C80.6521 112.677 81.2614 112.814 81.6532 113.504C82.0262 114.169 81.9392 114.81 81.4293 115.351C80.9008 115.91 80.2044 115.923 79.5826 115.581C78.9483 115.226 78.6499 114.642 78.9172 113.877C78.9794 113.697 78.9794 113.491 79.0105 113.305Z" fill="#FCFCFC"/>
<path d="M137.976 112.77C138.088 112.895 138.2 113.013 138.312 113.137C138.716 114.71 138.361 115.655 137.236 115.935C136.347 116.153 135.576 115.917 135.097 115.096C134.693 114.406 134.618 113.666 135.134 112.988C135.712 112.229 136.496 112.117 137.36 112.428C137.578 112.509 137.777 112.652 137.982 112.77H137.976Z" fill="#FCFCFC"/>
<path d="M120.254 122.334C122.033 123.204 123.792 124.099 125.222 125.53C126.578 126.898 126.982 128.396 126.398 130.293C124.8 135.491 121.467 138.848 116.188 140.21C115.69 140.341 115.429 140.478 115.379 141.012C115.311 141.796 115.162 142.573 115.044 143.357C114.807 143.985 114.583 144.619 114.322 145.241C111.804 151.365 105.754 152.572 100.68 150.675C100.064 150.445 99.6417 150.433 99.0572 150.7C97.4716 151.427 96.2467 151.204 95.4072 150.084C96.8374 149.96 98.1556 149.649 99.0883 148.499C99.6541 147.802 100.046 147.05 100.089 146.136C100.102 145.925 99.9774 145.62 100.288 145.527C100.593 145.433 100.823 145.657 100.997 145.862C101.663 146.652 101.607 147.616 101.339 148.468C101.09 149.27 101.376 149.407 102.023 149.55C106.817 150.594 110.648 148.244 112.103 143.357C112.426 142.704 112.401 141.97 112.563 141.28C112.699 140.714 112.457 140.552 111.897 140.478C105.698 139.601 100.891 136.56 97.6022 131.2C97.4778 130.666 97.3472 130.131 97.2229 129.596C97.6022 129.696 97.7887 129.994 97.9877 130.293C99.2562 132.164 101.053 133.464 102.85 134.757C103.571 135.279 103.957 135.254 104.262 134.297C105.816 129.484 108.994 125.772 112.525 122.315C112.967 121.88 113.62 121.656 113.812 120.978C116.026 121.115 118.159 121.631 120.248 122.327L120.254 122.334Z" fill="#363128"/>
<path d="M113.819 120.984C113.626 121.656 112.973 121.886 112.532 122.321C109 125.778 105.822 129.49 104.268 134.303C103.957 135.261 103.578 135.286 102.857 134.763C101.053 133.47 99.2625 132.17 97.994 130.299C97.7889 130 97.6085 129.702 97.2292 129.602C96.4333 128.004 96.9805 126.699 98.1371 125.548C99.9216 123.776 102.123 122.75 104.479 121.979C107.526 120.984 110.635 120.648 113.825 120.984H113.819ZM99.0262 128.228C101.147 127.712 103.136 126.804 104.728 125.188C105.095 124.815 105.313 124.23 104.467 124.062C102.894 123.751 99.1195 125.405 98.2676 126.761C98.0811 127.053 97.8573 127.364 98.05 127.743C98.2366 128.116 98.6096 128.135 99.0262 128.228Z" fill="#504B41"/>
<path d="M94.3192 129.727C93.7844 133.936 92.3232 138.078 89.2764 141.56C89.1209 141.74 88.9406 141.895 88.7541 142.045C88.1012 142.567 87.3364 142.921 86.5653 142.536C85.7756 142.138 85.471 141.305 85.4647 140.434C85.4337 137.369 86.5591 134.645 88.0763 132.065C88.9966 130.498 90.0598 129.024 91.6143 127.973C92.2734 127.526 92.9325 127.159 93.6974 127.507C94.543 127.892 94.2135 128.732 94.3192 129.733V129.727Z" fill="#FCFCFC"/>
<path d="M97.6023 131.2C100.892 136.566 105.698 139.601 111.897 140.478C112.457 140.558 112.7 140.72 112.563 141.28C112.395 141.97 112.426 142.704 112.103 143.356C108.571 142.847 105.543 141.242 102.763 139.079C100.581 137.375 98.8148 135.348 97.8137 132.73C97.6334 132.251 97.3101 131.754 97.6023 131.194V131.2Z" fill="#F5C99B"/>
<path d="M127.585 126.575C127.585 126.575 127.604 126.493 127.617 126.493C127.648 126.493 127.686 126.512 127.718 126.525C127.705 126.556 127.699 126.582 127.686 126.613C127.655 126.601 127.617 126.588 127.585 126.575Z" fill="#F9F5EA"/>
<path d="M99.0261 128.228C98.6095 128.135 98.2365 128.116 98.0499 127.743C97.8572 127.358 98.081 127.053 98.2675 126.761C99.1194 125.405 102.894 123.751 104.467 124.062C105.313 124.23 105.095 124.814 104.728 125.188C103.136 126.804 101.146 127.712 99.0261 128.228Z" fill="#FCFCFC"/>
<defs>
<linearGradient id="paint0_linear_10_2163" x1="163.367" y1="2.13249" x2="163.367" y2="169.401" gradientUnits="userSpaceOnUse">
<stop stop-color="#D7C100" stop-opacity="0.02"/>
<stop offset="1" stop-color="#FFE713"/>
</linearGradient>
</defs>
</svg>
