<svg width="42" height="40" viewBox="0 0 42 40" fill="none" xmlns="http://www.w3.org/2000/svg">
<path d="M12.3653 10.7212C5.84614 13.4098 8.17766 19.0681 9.98855 21.4206L13.0938 19.7952C13.5963 20.8242 14.5068 21.7394 15.5187 22.4837C16.2643 23.0322 17.065 23.4879 17.798 23.828C16.7919 25.8909 16.5796 27.5679 16.8744 28.8691C17.0804 29.7785 17.5341 30.5042 18.1376 31.0499C15.4212 38.0401 26.6261 42.9841 29.682 34.5823C36.8124 38.2791 45.058 26.2054 37.4914 19.484C42.0031 10.81 33.1646 3.11646 26.6261 6.35228C20.8539 -3.72992 8.63038 1.9834 12.3653 10.7212Z" fill="white"/>
<path d="M9.98855 21.4206C8.17766 19.0681 5.84614 13.4098 12.3653 10.7212C8.63038 1.9834 20.8539 -3.72992 26.6261 6.35228C33.1646 3.11646 42.0031 10.81 37.4914 19.484M36.8124 20.4673C37.0269 20.1301 37.3173 19.8187 37.4914 19.484M37.4914 19.484C45.058 26.2054 36.8124 38.2791 29.682 34.5823C26.6261 42.9841 15.4212 38.0402 18.1376 31.0499M24.9284 31.2216C22.4313 33.1989 17.6938 32.486 16.8744 28.8691M16.7794 13.0737C12.6598 15.464 12.1371 17.8358 13.0938 19.7952M13.0938 19.7952L2.17908 25.5084M13.0938 19.7952C13.5963 20.8242 14.5068 21.7394 15.5187 22.4837M15.5187 22.4837C16.2643 23.0322 17.065 23.4879 17.798 23.828C16.7919 25.8909 16.5796 27.5679 16.8744 28.8691M15.5187 22.4837L1.5 28.8691M16.8744 28.8691L2.17908 33.5741" stroke="#843E2F" stroke-width="1.54106" stroke-linecap="round" stroke-linejoin="round"/>
</svg>
