<svg width="24" height="24" viewBox="0 0 24 24" fill="none" xmlns="http://www.w3.org/2000/svg">
<path d="M22.2076 2.45514C22.0914 2.3548 21.95 2.28806 21.7987 2.26213C21.6474 2.23619 21.4919 2.25203 21.3489 2.30795L2.34949 9.74327C2.08023 9.84797 1.85226 10.0373 1.69992 10.2828C1.54758 10.5283 1.4791 10.8166 1.5048 11.1043C1.5305 11.3921 1.64898 11.6637 1.84241 11.8783C2.03584 12.0929 2.29375 12.2389 2.5773 12.2942L7.50011 13.2608V18.7498C7.49915 19.0488 7.588 19.3412 7.75515 19.5891C7.92231 19.837 8.16007 20.029 8.43761 20.1401C8.71473 20.2533 9.01949 20.2805 9.31225 20.2181C9.60501 20.1557 9.87224 20.0067 10.0792 19.7905L12.4529 17.3286L16.2189 20.6248C16.4906 20.8658 16.841 20.9992 17.2042 20.9998C17.3633 20.9997 17.5215 20.9747 17.6729 20.9258C17.9204 20.8472 18.1429 20.7053 18.3184 20.514C18.494 20.3227 18.6163 20.0887 18.6732 19.8355L22.4786 3.28108C22.5126 3.13178 22.5054 2.97603 22.4576 2.83053C22.4099 2.68503 22.3235 2.55527 22.2076 2.45514ZM16.4757 5.83014L8.07668 11.8451L3.42668 10.933L16.4757 5.83014ZM9.00011 18.7498V14.2986L11.3242 16.3367L9.00011 18.7498ZM17.2061 19.4998L9.4548 12.703L20.6111 4.70702L17.2061 19.4998Z" fill="#FFEEDA"/>
</svg>
