<svg width="15" height="14" viewBox="0 0 15 14" fill="none" xmlns="http://www.w3.org/2000/svg">
<path d="M14.1663 5H0.833008M0.833008 4.2L0.833008 9.8C0.833008 10.9201 0.833008 11.4802 1.05099 11.908C1.24274 12.2843 1.5487 12.5903 1.92503 12.782C2.35285 13 2.9129 13 4.03301 13H10.9663C12.0864 13 12.6465 13 13.0743 12.782C13.4506 12.5903 13.7566 12.2843 13.9484 11.908C14.1663 11.4802 14.1663 10.9201 14.1663 9.8V4.2C14.1663 3.0799 14.1663 2.51984 13.9484 2.09202C13.7566 1.7157 13.4506 1.40973 13.0743 1.21799C12.6465 1 12.0864 1 10.9663 1L4.03301 1C2.9129 1 2.35285 1 1.92503 1.21799C1.5487 1.40973 1.24274 1.71569 1.05099 2.09202C0.833008 2.51984 0.833008 3.07989 0.833008 4.2Z" stroke="white" stroke-width="1.33333" stroke-linecap="round" stroke-linejoin="round"/>
</svg>
